# xmcd
#
# Track frame offsets: 
#        150
#        10031
#        23385
#        33937
#        46605
#        57810
#        70409
#        85411
#        95162
#        113666
#        126475
#        136748
#        150343
#        166268
#        178198
#        194175
#
# Disc length: 2755 seconds
#
# Revision: 0
# Processed by: cddbd v1.5.1PL0 Copyright (c) Steve Scherf et al.
# Submitted via: ExactAudioCopy v0.95a5
#
DISCID=cb0ac110
DTITLE=The Fossils - The Fossil Record
DYEAR=2000
DGENRE=Bluegrass
TTITLE0=Dreaming
TTITLE1=Bye Bye Love
TTITLE2=I'm Lost in this World Without You
TTITLE3=Going Down
TTITLE4=The Bells of St. Mary's
TTITLE5=Sweethearts in Heaven
TTITLE6=Winter Blues
TTITLE7=I'll Take a Chance (On Lovin' You)
TTITLE8=My Carolina Darlin'
TTITLE9=Roses in the Snow
TTITLE10=Hickory Hollow
TTITLE11=Lamplighting Time in the Valley
TTITLE12=Time Nor Tide
TTITLE13=Country Boy Rock n' Roll
TTITLE14=Gone Home
TTITLE15=Can the Circle be Unbroken?
EXTD=
EXTT0=
EXTT1=
EXTT2=
EXTT3=
EXTT4=
EXTT5=
EXTT6=
EXTT7=
EXTT8=
EXTT9=
EXTT10=
EXTT11=
EXTT12=
EXTT13=
EXTT14=
EXTT15=
PLAYORDER=
